<?xml version="1.0" encoding="utf-8"?>
<!-- Generator: Adobe Illustrator 28.1.0, SVG Export Plug-In . SVG Version: 6.00 Build 0)  -->
<svg version="1.1" id="Layer_1" xmlns="http://www.w3.org/2000/svg" xmlns:xlink="http://www.w3.org/1999/xlink" x="0px" y="0px"
	 viewBox="0 0 150 43" style="enable-background:new 0 0 150 43;" xml:space="preserve">
<style type="text/css">
	.st0{fill-rule:evenodd;clip-rule:evenodd;fill:#FF0000;}
</style>
<polygon points="51.86,23.16 48.24,14.22 42.52,14.22 42.52,29.61 46.65,29.61 46.65,21.23 50.12,29.61 53.41,29.61 56.88,21.13 
	56.88,29.61 61.01,29.61 61.01,14.22 55.29,14.22 "/>
<path d="M83.96,20.76c0.19,0.3,0.33,0.65,0.41,1.05c0.09,0.41,0.13,0.86,0.13,1.32c0,0.39-0.05,0.78-0.16,1.13
	c-0.1,0.35-0.26,0.66-0.46,0.93c-0.2,0.27-0.45,0.47-0.75,0.63c-0.3,0.16-0.65,0.24-1.06,0.24c-0.44,0-0.8-0.09-1.07-0.27
	c-0.29-0.18-0.53-0.42-0.7-0.71c-0.18-0.3-0.32-0.64-0.39-1.02c-0.08-0.4-0.12-0.8-0.12-1.21c0-0.42,0.05-0.82,0.14-1.19
	c0.09-0.36,0.23-0.69,0.43-0.96c0.19-0.27,0.43-0.49,0.71-0.64c0.27-0.15,0.62-0.23,1.01-0.23c0.47,0,0.86,0.08,1.16,0.25
	C83.54,20.25,83.78,20.47,83.96,20.76 M84.5,17.86c-0.3-0.32-0.64-0.57-1.01-0.76c-0.64-0.32-1.39-0.48-2.23-0.48
	c-0.89,0-1.68,0.18-2.37,0.52c-0.69,0.35-1.27,0.82-1.73,1.4c-0.46,0.58-0.81,1.26-1.04,2.01c-0.23,0.75-0.35,1.53-0.35,2.34
	c0,0.84,0.1,1.66,0.3,2.41c0.2,0.77,0.53,1.46,0.97,2.04c0.45,0.59,1.03,1.06,1.72,1.4c0.69,0.34,1.52,0.51,2.47,0.51
	c0.77,0,1.52-0.16,2.22-0.48c0.39-0.18,0.74-0.42,1.04-0.71v0.56c0.01,0.76-0.17,1.39-0.54,1.87c-0.35,0.46-0.92,0.69-1.73,0.69
	c-0.52,0-0.98-0.11-1.37-0.31c-0.35-0.19-0.59-0.53-0.72-1.05l-0.07-0.28h-3.93l0.03,0.39c0.05,0.74,0.26,1.39,0.63,1.92
	c0.36,0.53,0.81,0.96,1.36,1.3c0.53,0.33,1.12,0.57,1.77,0.73c0.63,0.15,1.26,0.23,1.87,0.23c1.42,0,2.57-0.2,3.43-0.59
	c0.86-0.39,1.54-0.88,2-1.45c0.46-0.57,0.77-1.2,0.92-1.87c0.14-0.64,0.2-1.22,0.2-1.72V16.95H84.5V17.86z"/>
<path d="M111.53,23.31c0,0.45-0.04,0.9-0.13,1.34c-0.08,0.41-0.23,0.78-0.42,1.09c-0.19,0.3-0.45,0.54-0.76,0.73
	c-0.3,0.18-0.69,0.27-1.16,0.27c-0.46,0-0.84-0.09-1.16-0.27c-0.32-0.19-0.57-0.43-0.77-0.73c-0.2-0.31-0.34-0.67-0.43-1.09
	c-0.09-0.44-0.14-0.88-0.14-1.33c0-0.47,0.04-0.92,0.13-1.36c0.08-0.42,0.23-0.79,0.42-1.1c0.19-0.3,0.45-0.56,0.76-0.75
	c0.3-0.19,0.69-0.28,1.16-0.28c0.45,0,0.83,0.09,1.14,0.28c0.31,0.19,0.57,0.45,0.77,0.76c0.21,0.32,0.36,0.7,0.45,1.11
	C111.48,22.42,111.53,22.87,111.53,23.31 M114.15,18.71c-0.48-0.63-1.09-1.13-1.81-1.51c-0.73-0.38-1.6-0.57-2.59-0.57
	c-0.79,0-1.52,0.16-2.19,0.47c-0.39,0.18-0.74,0.43-1.05,0.74v-0.89h-3.85v16.85h4.01V28.7c0.31,0.29,0.67,0.53,1.06,0.72
	c0.67,0.32,1.41,0.49,2.2,0.49c0.93,0,1.76-0.18,2.47-0.55c0.7-0.36,1.29-0.85,1.76-1.46c0.46-0.6,0.81-1.3,1.04-2.08
	c0.22-0.77,0.34-1.58,0.34-2.41c0-0.87-0.11-1.73-0.34-2.53C114.98,20.06,114.62,19.33,114.15,18.71"/>
<path d="M124.26,26.46c-0.32,0.18-0.73,0.28-1.22,0.28c-0.49,0-0.89-0.09-1.2-0.27c-0.32-0.19-0.57-0.43-0.76-0.74
	c-0.2-0.32-0.34-0.7-0.43-1.1c-0.09-0.43-0.13-0.87-0.13-1.32s0.04-0.9,0.13-1.34c0.08-0.41,0.23-0.78,0.42-1.1
	c0.19-0.31,0.45-0.55,0.77-0.75c0.31-0.19,0.71-0.28,1.2-0.28c0.48,0,0.89,0.1,1.21,0.28c0.33,0.19,0.58,0.44,0.78,0.75
	c0.2,0.32,0.34,0.69,0.42,1.1c0.09,0.44,0.13,0.89,0.13,1.34s-0.04,0.9-0.13,1.32c-0.08,0.41-0.23,0.78-0.43,1.1
	C124.83,26.03,124.58,26.28,124.26,26.46 M127.8,18.45c-0.57-0.58-1.27-1.04-2.08-1.35c-0.8-0.32-1.71-0.48-2.69-0.48
	c-0.98,0-1.88,0.16-2.67,0.48c-0.8,0.32-1.49,0.77-2.07,1.35c-0.57,0.58-1.02,1.29-1.33,2.11c-0.31,0.82-0.46,1.73-0.46,2.73
	c0,1,0.16,1.91,0.46,2.71c0.31,0.81,0.76,1.52,1.33,2.1c0.57,0.58,1.27,1.03,2.07,1.34c0.79,0.31,1.69,0.46,2.67,0.46
	c0.98,0,1.88-0.16,2.68-0.46c0.81-0.31,1.51-0.76,2.08-1.34c0.57-0.58,1.02-1.29,1.33-2.1c0.31-0.81,0.46-1.72,0.46-2.71
	c0-0.99-0.16-1.91-0.46-2.73C128.82,19.74,128.37,19.03,127.8,18.45"/>
<path d="M145.71,20.31v-3.68h-2.4v-3.25h-4.01v13.18c0,0.66,0.12,1.21,0.34,1.63c0.23,0.43,0.55,0.76,0.96,1
	c0.38,0.22,0.83,0.37,1.33,0.45c0.47,0.07,0.97,0.11,1.5,0.11c0.33,0,0.66-0.01,1.01-0.02c0.36-0.02,0.68-0.05,0.97-0.1l0.31-0.05
	v-3.3l-0.44,0.09c-0.14,0.03-0.29,0.05-0.45,0.06c-0.16,0.01-0.33,0.02-0.5,0.02c-0.63,0-0.81-0.13-0.85-0.17
	c-0.04-0.04-0.17-0.22-0.17-0.85v-5.11H145.71z"/>
<path d="M138.34,16.62c-0.45,0-1.36,0.07-1.78,0.2c-0.41,0.13-0.81,0.32-1.18,0.56c-0.37,0.24-0.7,0.54-0.98,0.88
	c-0.01,0.01-0.02,0.02-0.02,0.03v-1.35h-3.85v12.67h4.01v-5.75c0-0.51,0.05-0.99,0.15-1.42c0.1-0.41,0.26-0.77,0.48-1.08
	c0.22-0.3,0.5-0.53,0.87-0.71c0.48-0.23,1.13-0.31,1.89-0.23l0.4,0.04V17V16.62"/>
<path d="M67.4,20.05c0.29-0.15,0.68-0.23,1.14-0.23c0.69,0,1.2,0.18,1.52,0.53c0.28,0.3,0.49,0.73,0.63,1.28h-4.46
	c0.02-0.1,0.05-0.21,0.08-0.32c0.07-0.24,0.2-0.48,0.37-0.71C66.86,20.39,67.1,20.2,67.4,20.05 M73.44,18.94
	c-0.52-0.7-1.18-1.27-1.98-1.69c-0.8-0.42-1.75-0.63-2.82-0.63c-0.95,0-1.84,0.17-2.63,0.52c-0.79,0.34-1.48,0.82-2.05,1.41
	c-0.57,0.6-1.02,1.31-1.32,2.12c-0.31,0.81-0.46,1.69-0.46,2.62c0,0.96,0.15,1.86,0.45,2.67c0.3,0.81,0.73,1.52,1.29,2.11
	c0.56,0.59,1.25,1.05,2.05,1.37c0.79,0.32,1.69,0.48,2.68,0.48c1.42,0,2.65-0.33,3.66-0.98c0.8-0.52,1.45-1.31,1.92-2.36l0.23-0.52
	h-3.89l-0.1,0.08c-0.07,0.06-0.13,0.11-0.22,0.17c-0.42,0.29-0.91,0.43-1.5,0.43c-0.82,0-1.45-0.21-1.87-0.61
	c-0.36-0.35-0.59-0.92-0.67-1.68h8.56l0.02-0.34c0.06-0.96-0.02-1.89-0.24-2.77C74.32,20.44,73.95,19.64,73.44,18.94"/>
<path d="M97.25,24.03v0.6c0,0.17-0.02,0.4-0.05,0.69c-0.03,0.26-0.12,0.52-0.27,0.78c-0.14,0.24-0.36,0.46-0.66,0.64
	c-0.29,0.18-0.73,0.27-1.31,0.27c-0.24,0-0.47-0.02-0.7-0.06c-0.2-0.04-0.37-0.1-0.52-0.19c-0.13-0.08-0.23-0.19-0.31-0.34
	c-0.08-0.15-0.12-0.34-0.12-0.57c0-0.25,0.04-0.44,0.12-0.59c0.08-0.15,0.19-0.28,0.32-0.38c0.14-0.11,0.32-0.19,0.52-0.26
	c0.22-0.07,0.45-0.13,0.68-0.17c0.25-0.05,0.51-0.08,0.76-0.11c0.27-0.03,0.53-0.07,0.78-0.12c0.25-0.05,0.5-0.11,0.71-0.19
	C97.22,24.04,97.24,24.03,97.25,24.03 M101.26,26.59v-6.21c0-0.8-0.19-1.46-0.56-1.96c-0.36-0.48-0.82-0.87-1.38-1.14
	c-0.54-0.26-1.14-0.44-1.8-0.53c-1.34-0.18-2.64-0.18-3.92,0.07c-0.69,0.14-1.32,0.37-1.88,0.7c-0.57,0.34-1.04,0.78-1.41,1.34
	c-0.37,0.56-0.59,1.27-0.64,2.1l-0.02,0.39h4l0.03-0.33c0.05-0.54,0.22-0.92,0.5-1.13c0.3-0.23,0.74-0.34,1.3-0.34
	c0.27,0,0.53,0.02,0.76,0.05c0.21,0.03,0.39,0.09,0.54,0.18c0.14,0.08,0.25,0.2,0.33,0.35c0.08,0.15,0.13,0.38,0.13,0.68
	c0.01,0.29-0.09,0.41-0.17,0.47c-0.17,0.14-0.42,0.25-0.74,0.33c-0.35,0.09-0.76,0.15-1.22,0.2c-0.49,0.05-0.99,0.11-1.48,0.19
	c-0.5,0.08-1.01,0.19-1.5,0.32c-0.52,0.14-1,0.36-1.41,0.64c-0.42,0.29-0.77,0.69-1.04,1.18c-0.27,0.49-0.4,1.11-0.4,1.85
	c0,0.67,0.12,1.25,0.35,1.75c0.23,0.5,0.56,0.91,0.97,1.24c0.41,0.32,0.88,0.56,1.42,0.71c0.52,0.15,1.09,0.22,1.69,0.22
	c0.77,0,1.54-0.11,2.28-0.34c0.54-0.16,1.03-0.42,1.48-0.76c0.04,0.19,0.09,0.37,0.15,0.55l0.08,0.25h3.59l0-1.96
	C101.27,27.26,101.26,26.92,101.26,26.59"/>
<path class="st0" d="M35.5,31.17c1.83-2.74,2.81-5.96,2.81-9.25c0-4.42-1.76-8.65-4.88-11.78c-3.13-3.12-7.37-4.88-11.79-4.88
	c-3.3,0-6.52,0.98-9.26,2.81C9.63,9.9,7.49,12.5,6.23,15.54c-1.26,3.04-1.59,6.39-0.95,9.62c0.64,3.23,2.23,6.2,4.56,8.53
	c2.33,2.33,5.3,3.92,8.54,4.56c3.23,0.64,6.59,0.31,9.63-0.95C31.06,36.04,33.67,33.91,35.5,31.17z M23.84,18.5l-2.14-2.14
	l-2.14,2.14v4.42l2.14,2.14l2.14-2.14V18.5z M26.79,22.92l3.62,3.61l0,5.65l-1.48,1.03l-1.48-1.03v-4.42l-2.14-2.14l-2.14,2.14v4.42
	l-1.48,1.03l-1.48-1.03v-4.42l-2.14-2.14l-2.14,2.14v4.43l-1.48,1.03l-1.48-1.03v-5.65l3.62-3.62v-5.65l3.62-3.61V9.24l1.48-1.03
	l1.48,1.03v4.42l3.62,3.61V22.92z"/>
</svg>
