<?xml version="1.0" encoding="UTF-8"?><svg id="Layer_1" xmlns="http://www.w3.org/2000/svg" xmlns:xlink="http://www.w3.org/1999/xlink" viewBox="0 0 1011.02 421.27"><defs><style>.cls-1{fill:url(#linear-gradient);}.cls-1,.cls-2,.cls-3,.cls-4,.cls-5{fill-rule:evenodd;}.cls-1,.cls-2,.cls-3,.cls-4,.cls-5,.cls-6,.cls-7{stroke-width:0px;}.cls-2{fill:url(#linear-gradient-3);}.cls-3{fill:url(#linear-gradient-2);}.cls-4{fill:url(#linear-gradient-4);}.cls-5{fill:url(#linear-gradient-5);}.cls-6{fill:#808285;}.cls-7{fill:#58595b;}</style><linearGradient id="linear-gradient" x1="37.22" y1="66.67" x2="334.12" y2="66.67" gradientUnits="userSpaceOnUse"><stop offset="0" stop-color="#ff7300"/><stop offset=".29" stop-color="#ff4800"/><stop offset=".63" stop-color="#c20e00"/><stop offset="1" stop-color="#510017"/></linearGradient><linearGradient id="linear-gradient-2" x1="43.25" y1="180.44" x2="162.84" y2="60.85" xlink:href="#linear-gradient"/><linearGradient id="linear-gradient-3" x1="448.92" y1="18.98" x2="198.43" y2="146.25" gradientUnits="userSpaceOnUse"><stop offset="0" stop-color="#fb872b"/><stop offset="1" stop-color="#d9e021"/></linearGradient><linearGradient id="linear-gradient-4" x1="161.7" y1="153.62" x2="161.7" y2="453.48" xlink:href="#linear-gradient"/><linearGradient id="linear-gradient-5" x1="56.84" y1="417.63" x2="360.64" y2="113.82" xlink:href="#linear-gradient"/></defs><path class="cls-1" d="m147.84,54.22c22.87-6.79,31.52,12.36,21.32,59.33,107.55-122.99,49.14-157.92-104.15-45.43C27.31,95.95,8.46,117.27,2.27,133.34c1.24-.62,2.17-1.54,3.4-2.16C22.05,95.95,110.13,54.53,147.84,54.22h0Z"/><path class="cls-3" d="m147.84,169.8c-106.01-16.37-93.65-39.86-46.36-83.75,24.72-22.87,43.88-34.31,56.24-33.07C118.47,45.88,23.91,93.17,5.06,127.78c-34.31,65.82,116.2,47.6,142.78,42.02h0Z"/><path class="cls-2" d="m254.15,61.64c54.08,4.63,80.97,7.11,80.97,7.11-2.78,1.23-6.8,24.72-12.05,70.46,36.77-52.54,76.95-95.81,120.53-129.19-65.83,6.5-128.88,23.49-189.45,51.62h0Z"/><path class="cls-4" d="m311.63,77.7C115.39,209.37,56.98,329.27,101.17,355.85c7.72,4.64,19.47.62,32.76-8.95l-.62,2.78c-23.49,16.99-77.88,54.71-106.62,34.3-68.3-79.73,110.33-216.95,284.94-306.27h0Z"/><path class="cls-5" d="m131.46,348.44c52.54-35.85,132.89-163.49,78.19-172.45,93.64-22.56-4.01,334.39-165.03,224.06-14.22-9.89-23.49-21.02-28.43-33.07,13.91,33.07,52.54,26.9,115.28-18.54h0Z"/><path class="cls-7" d="m274.74,236.46c1.33,2.6,3.28,4.52,5.85,5.75,2.57,1.23,5.28,1.85,8.15,1.85,1.6,0,3.25-.25,4.95-.75,1.7-.5,3.3-1.25,4.8-2.25s2.8-2.23,3.9-3.7c1.1-1.46,1.78-3.17,2.05-5.1.4-2.73-.17-4.82-1.7-6.25-1.53-1.43-3.52-2.63-5.95-3.6-2.43-.97-5.1-1.9-8-2.8-2.9-.9-5.53-2.15-7.9-3.75-2.37-1.6-4.22-3.75-5.55-6.45-1.33-2.7-1.67-6.35-1-10.95.27-2.07,1.02-4.27,2.25-6.6,1.23-2.33,2.97-4.46,5.2-6.4,2.23-1.93,4.95-3.55,8.15-4.85,3.2-1.3,6.93-1.95,11.2-1.95,1.93,0,3.82.12,5.65.35,1.83.23,3.57.65,5.2,1.25,1.63.6,3.15,1.43,4.55,2.5,1.4,1.07,2.67,2.4,3.8,4l-8.8,7.1c-.93-1.87-2.42-3.37-4.45-4.5-2.03-1.13-4.45-1.7-7.25-1.7s-4.93.35-6.8,1.05c-1.87.7-3.4,1.6-4.6,2.7-1.2,1.1-2.12,2.28-2.75,3.55-.63,1.27-1.02,2.43-1.15,3.5-.4,3,.15,5.3,1.65,6.9,1.5,1.6,3.46,2.9,5.9,3.9,2.43,1,5.1,1.9,8,2.7,2.9.8,5.55,1.92,7.95,3.35,2.4,1.43,4.28,3.37,5.65,5.8,1.37,2.43,1.75,5.79,1.15,10.05-.53,3.4-1.63,6.47-3.3,9.2-1.67,2.73-3.73,5.04-6.2,6.9-2.47,1.87-5.27,3.3-8.4,4.3-3.13,1-6.4,1.5-9.8,1.5-4.6,0-8.8-.78-12.6-2.35s-6.67-4.05-8.6-7.45l8.8-6.8Z"/><path class="cls-7" d="m349.64,189.46h-22.8l1.3-9h55.2l-1.3,9h-22.8l-8.6,61.8h-9.6l8.6-61.8Z"/><path class="cls-7" d="m406.54,180.46h8.7l20.4,70.8h-11.2l-4.7-17.5h-33.7l-9.4,17.5h-11.2l41.1-70.8Zm10.9,44.9l-8.6-32.5h-.2l-18,32.5h26.8Z"/><path class="cls-7" d="m454.74,180.46h24.9c4.53,0,8.18.62,10.95,1.85,2.77,1.23,4.87,2.8,6.3,4.7,1.43,1.9,2.32,4.03,2.65,6.4.33,2.37.33,4.65,0,6.85-.33,2.27-1.03,4.45-2.09,6.55-1.06,2.1-2.47,4-4.23,5.7s-3.78,3.14-6.07,4.3c-2.29,1.17-4.79,1.88-7.51,2.15l15.5,32.3h-12l-13.7-31.2h-10.7l-4.3,31.2h-9.6l9.9-70.8Zm5.2,31.2h12.6c1.87,0,3.73-.15,5.6-.45,1.87-.3,3.58-.85,5.15-1.65,1.57-.8,2.88-1.95,3.95-3.45,1.07-1.5,1.77-3.45,2.1-5.85.33-2.4.17-4.35-.5-5.85-.67-1.5-1.65-2.65-2.95-3.45-1.3-.8-2.85-1.35-4.65-1.65s-3.63-.45-5.5-.45h-12.6l-3.2,22.8Z"/><path class="cls-6" d="m528.82,182.02h8.5l34.4,62h.2l8.7-62h6.6l-9.9,70.8h-8.5l-34.4-62h-.2l-8.7,62h-6.6l9.9-70.8Z"/><path class="cls-6" d="m606.62,182.02h43.3l-.8,6h-36.7l-3.6,25.2h34.4l-.8,6h-34.4l-3.9,27.6h38.3l-.8,6h-44.9l9.9-70.8Z"/><path class="cls-6" d="m680.82,188.02h-24.2l.8-6h55l-.8,6h-24.2l-9.1,64.8h-6.6l9.1-64.8Z"/><path class="cls-6" d="m714.12,182.02h6.8l8.8,62.7h.2l26.7-62.7h8.4l9.1,62.7h.2l26.4-62.7h6.8l-30.5,70.8h-8.1l-9.1-63h-.2l-26.7,63h-8.1l-10.7-70.8Z"/><path class="cls-6" d="m808.12,217.42c.8-5.4,2.42-10.37,4.85-14.9,2.43-4.53,5.5-8.45,9.2-11.75s7.92-5.88,12.65-7.75c4.73-1.87,9.8-2.8,15.2-2.8s10.21.93,14.45,2.8c4.23,1.87,7.72,4.45,10.45,7.75,2.73,3.3,4.68,7.22,5.85,11.75,1.17,4.53,1.35,9.5.55,14.9-.73,5.4-2.32,10.38-4.75,14.95-2.43,4.57-5.5,8.5-9.2,11.8-3.7,3.3-7.92,5.87-12.65,7.7-4.73,1.83-9.8,2.75-15.2,2.75s-10.22-.92-14.45-2.75c-4.23-1.83-7.73-4.4-10.5-7.7-2.77-3.3-4.72-7.23-5.85-11.8-1.13-4.57-1.33-9.55-.6-14.95Zm6.6,0c-.6,4.4-.47,8.5.4,12.3.87,3.8,2.4,7.1,4.6,9.9,2.2,2.8,5.03,5,8.5,6.6,3.47,1.6,7.5,2.4,12.1,2.4s8.87-.8,12.8-2.4c3.93-1.6,7.4-3.8,10.4-6.6s5.46-6.1,7.4-9.9c1.93-3.8,3.2-7.9,3.8-12.3.6-4.4.48-8.5-.35-12.3-.83-3.8-2.35-7.1-4.55-9.9-2.2-2.8-5.05-5-8.55-6.6-3.5-1.6-7.55-2.4-12.15-2.4s-8.87.8-12.8,2.4c-3.93,1.6-7.4,3.8-10.4,6.6-3,2.8-5.47,6.1-7.4,9.9-1.93,3.8-3.2,7.9-3.8,12.3Z"/><path class="cls-6" d="m901.12,182.02h18.6c.93,0,2.2.03,3.8.1,1.6.07,3.32.27,5.15.6,1.83.33,3.65.87,5.45,1.6,1.8.73,3.38,1.8,4.75,3.2,1.37,1.4,2.38,3.17,3.05,5.3.67,2.13.8,4.73.4,7.8-.47,3.4-1.43,6.2-2.9,8.4-1.47,2.2-3.18,3.98-5.15,5.35-1.97,1.37-4.07,2.39-6.3,3.05-2.23.67-4.35,1.13-6.35,1.4l15.9,34h-7.5l-15.2-33.6h-12.3l-4.7,33.6h-6.6l9.9-70.8Zm2.2,31.2h14c3.47,0,6.35-.43,8.65-1.3,2.3-.87,4.13-1.93,5.5-3.2,1.37-1.27,2.37-2.63,3-4.1.63-1.47,1.05-2.8,1.25-4s.18-2.53-.05-4c-.23-1.47-.87-2.83-1.9-4.1-1.03-1.27-2.57-2.33-4.6-3.2-2.04-.87-4.79-1.3-8.25-1.3h-14l-3.6,25.2Z"/><path class="cls-6" d="m960.42,182.02h6.6l-4.4,31.2h.6l38.7-31.2h9.1l-40.4,32.4,32.5,38.4h-9.5l-30.8-36.6h-.6l-5.1,36.6h-6.6l9.9-70.8Z"/></svg>